<?xml version="1.0" standalone="no"?>
<!DOCTYPE svg PUBLIC "-//W3C//DTD SVG 20010904//EN"
 "http://www.w3.org/TR/2001/REC-SVG-20010904/DTD/svg10.dtd">
<svg version="1.0" xmlns="http://www.w3.org/2000/svg"
 width="48.000000pt" height="48.000000pt" viewBox="0 0 48.000000 48.000000"
 preserveAspectRatio="xMidYMid meet">
<metadata>
Created by potrace 1.15, written by Peter Selinger 2001-2017
</metadata>
<g transform="translate(0.000000,48.000000) scale(0.100000,-0.100000)"
fill="#000000" stroke="none">
<path d="M0 240 l0 -240 240 0 240 0 0 240 0 240 -240 0 -240 0 0 -240z m352
83 c20 -18 23 -44 8 -59 -8 -8 -6 -15 5 -24 19 -16 19 -40 -1 -68 -18 -26 -61
-27 -56 -2 3 11 -2 10 -16 -4 -25 -22 -75 -18 -80 7 -2 9 1 17 7 17 6 0 10 -5
9 -12 -4 -19 28 -21 46 -3 10 11 16 33 16 64 0 26 7 56 15 67 13 17 14 16 8
-20 -5 -30 -3 -38 7 -34 20 6 34 33 27 51 -9 23 -51 31 -84 15 -38 -18 -40
-68 -3 -79 21 -7 19 -8 -10 -6 -30 2 -35 6 -38 29 -7 60 93 104 140 61z"/>
</g>
</svg>
